{
    "asset" : {
        "generator" : "Khronos glTF Blender I/O v1.3.48",
        "version" : "2.0"
    },
    "scene" : 0,
    "scenes" : [
        {
            "name" : "Scene",
            "nodes" : [
                0,
                1,
                2,
                3
            ]
        }
    ],
    "nodes" : [
        {
            "name" : "Light",
            "rotation" : [
                0.16907575726509094,
                0.7558803558349609,
                -0.27217137813568115,
                0.570947527885437
            ],
            "translation" : [
                4.076245307922363,
                5.903861999511719,
                -1.0054539442062378
            ]
        },
        {
            "name" : "Camera",
            "rotation" : [
                0.483536034822464,
                0.33687159419059753,
                -0.20870360732078552,
                0.7804827094078064
            ],
            "translation" : [
                7.358891487121582,
                4.958309173583984,
                6.925790786743164
            ]
        },
        {
            "mesh" : 0,
            "name" : "Circle",
            "scale" : [
                1,
                1.1087321043014526,
                1
            ]
        },
        {
            "name" : "Empty",
            "rotation" : [
                0,
                0.35999682545661926,
                0,
                0.9329535365104675
            ],
            "scale" : [
                0.9599999785423279,
                1.1435492038726807,
                1
            ]
        }
    ],
    "materials" : [
        {
            "doubleSided" : true,
            "emissiveFactor" : [
                0,
                0,
                0
            ],
            "name" : "Material.001",
            "pbrMetallicRoughness" : {
                "baseColorTexture" : {
                    "index" : 0,
                    "texCoord" : 0
                },
                "metallicFactor" : 0,
                "roughnessFactor" : 0.5
            }
        }
    ],
    "meshes" : [
        {
            "name" : "Circle",
            "primitives" : [
                {
                    "attributes" : {
                        "POSITION" : 0,
                        "NORMAL" : 1,
                        "TEXCOORD_0" : 2
                    },
                    "indices" : 3,
                    "material" : 0
                }
            ]
        }
    ],
    "textures" : [
        {
            "source" : 0
        }
    ],
    "images" : [
        {
            "bufferView" : 4,
            "mimeType" : "image/png",
            "name" : "grass"
        }
    ],
    "accessors" : [
        {
            "bufferView" : 0,
            "componentType" : 5126,
            "count" : 1200,
            "max" : [
                3.5216519832611084,
                6.659829139709473,
                3.601461887359619
            ],
            "min" : [
                -3.142427682876587,
                0.007118105888366699,
                -3.2627193927764893
            ],
            "type" : "VEC3"
        },
        {
            "bufferView" : 1,
            "componentType" : 5126,
            "count" : 1200,
            "type" : "VEC3"
        },
        {
            "bufferView" : 2,
            "componentType" : 5126,
            "count" : 1200,
            "type" : "VEC2"
        },
        {
            "bufferView" : 3,
            "componentType" : 5123,
            "count" : 1800,
            "type" : "SCALAR"
        }
    ],
    "bufferViews" : [
        {
            "buffer" : 0,
            "byteLength" : 14400,
            "byteOffset" : 0
        },
        {
            "buffer" : 0,
            "byteLength" : 14400,
            "byteOffset" : 14400
        },
        {
            "buffer" : 0,
            "byteLength" : 9600,
            "byteOffset" : 28800
        },
        {
            "buffer" : 0,
            "byteLength" : 3600,
            "byteOffset" : 38400
        },
        {
            "buffer" : 0,
            "byteLength" : 840,
            "byteOffset" : 42000
        }
    ],
    "buffers" : [
        {
            "byteLength" : 42840,
            "uri" : "data:application/octet-stream;base64,"
        }
    ]
}
